<?xml version="1.0" encoding="UTF-8" standalone="no"?>
<!-- Uploaded to: SVG Repo, www.svgrepo.com, Generator: SVG Repo Mixer Tools -->

<svg
   fill="#000000"
   width="800px"
   height="800px"
   viewBox="0 0 32 32"
   version="1.1"
   id="svg1"
   sodipodi:docname="ExtratoBancario.svg"
   inkscape:version="1.4 (86a8ad7, 2024-10-11)"
   inkscape:export-filename="ExtratoBancario.png"
   inkscape:export-xdpi="96"
   inkscape:export-ydpi="96"
   xmlns:inkscape="http://www.inkscape.org/namespaces/inkscape"
   xmlns:sodipodi="http://sodipodi.sourceforge.net/DTD/sodipodi-0.dtd"
   xmlns="http://www.w3.org/2000/svg"
   xmlns:svg="http://www.w3.org/2000/svg">
  <defs
     id="defs1" />
  <sodipodi:namedview
     id="namedview1"
     pagecolor="#ffffff"
     bordercolor="#000000"
     borderopacity="0.25"
     inkscape:showpageshadow="2"
     inkscape:pageopacity="0.0"
     inkscape:pagecheckerboard="0"
     inkscape:deskcolor="#d1d1d1"
     inkscape:zoom="0.61"
     inkscape:cx="442.62295"
     inkscape:cy="487.70492"
     inkscape:window-width="1366"
     inkscape:window-height="697"
     inkscape:window-x="-8"
     inkscape:window-y="-8"
     inkscape:window-maximized="1"
     inkscape:current-layer="svg1" />
  <title
     id="title1">pig</title>
  <path
     d="m 7.3257737,21.914854 c 0,0 -3.33,-2.278 -3.33,-6.771 0,-6.6880001 7.0880003,-9.161 10.8990003,-9.095 3.812,0.067 4.948,1.07 4.948,1.07 0,0 1.297,-0.943 2.672,-1.733 1.051999,-0.41 1.295999,-0.469 2.026999,-0.234 0.585,0 0.217,0.974 -0.018,1.325 -0.233,0.351 -1.365999,2.2899999 -1.365999,2.2899999 0,0 0.549729,3.7146141 2.193344,3.8950661 0,-0.029 1.480656,0.154934 2.094656,0.154934 0.614,0 0.556,0.669 0.556,0.669 l -0.017,4.714 c 0,0 0.038,0.669 -0.519,0.669 -0.556,0 -1.738,0.013 -1.738,0.013 0,0 -1.663001,2.415 -2.717,2.854 0,0.029 0.910999,2.503 0.910999,2.503 0,0 0.439,0.761 -0.351,1.054 -0.789999,0.292 -2.850999,1.157 -3.728999,1.421 -0.878,0.264 -1.003,-0.334 -1.003,-0.334 l -0.869,-1.877 -5.685,0.009 -0.869,1.935 c 0,0 -0.167,0.898 -1.337,0.401 -1.1710003,-0.497 -2.4490003,-1.087 -3.4150003,-1.584 -0.965,-0.497 -0.33,-1.426 -0.33,-1.426 z"
     id="path1"
     style="fill:#ffffff;stroke:#000000;stroke-opacity:1"
     sodipodi:nodetypes="cscccccccsccsccccscccccccc" />
  <text
     xml:space="preserve"
     style="font-size:12.4012px;text-align:start;writing-mode:lr-tb;direction:ltr;text-anchor:start;fill:#000000;stroke:none;stroke-width:8.26745;stroke-opacity:1"
     x="12.615102"
     y="20.175112"
     id="text1"><tspan
       sodipodi:role="line"
       id="tspan1"
       style="font-style:normal;font-variant:normal;font-weight:bold;font-stretch:normal;font-family:Arial;-inkscape-font-specification:'Arial Bold';fill:#000000;stroke:none;stroke-width:8.26745"
       x="12.615102"
       y="20.175112">$</tspan></text>
</svg>
